<?xml version="1.0" standalone="no"?>
<!DOCTYPE svg PUBLIC "-//W3C//DTD SVG 20010904//EN"
 "http://www.w3.org/TR/2001/REC-SVG-20010904/DTD/svg10.dtd">
<svg version="1.0" xmlns="http://www.w3.org/2000/svg"
 width="900.000000pt" height="900.000000pt" viewBox="0 0 900.000000 900.000000"
 preserveAspectRatio="xMidYMid meet">
<metadata>
Created by potrace 1.10, written by Peter Selinger 2001-2011
</metadata>
<g transform="translate(0.000000,900.000000) scale(0.100000,-0.100000)"
fill="#000000" stroke="none">
<path d="M3680 7869 c-432 -4 -658 -9 -685 -17 -51 -14 -105 -36 -175 -70 -67
-32 -217 -178 -250 -242 -13 -25 -28 -49 -35 -55 -7 -5 -15 -23 -19 -40 -3
-16 -15 -63 -26 -104 -11 -41 -20 -99 -20 -129 0 -47 -4 -58 -30 -82 -25 -24
-42 -29 -103 -35 -40 -4 -82 -6 -92 -4 -54 7 -200 -38 -280 -86 -32 -19 -61
-35 -65 -35 -8 0 -170 -175 -170 -184 0 -4 -11 -23 -24 -44 -14 -20 -39 -74
-56 -119 -40 -105 -59 -128 -123 -148 -135 -43 -295 -138 -348 -207 -18 -24
-37 -48 -43 -53 -16 -15 -43 -62 -81 -140 -43 -89 -54 -180 -55 -450 -1 -218
11 -2211 14 -2260 1 -28 36 -122 74 -205 21 -46 104 -146 145 -176 114 -83
130 -92 254 -134 117 -39 129 -56 138 -190 3 -58 10 -118 15 -135 5 -16 14
-49 19 -71 27 -104 135 -250 242 -329 47 -35 172 -96 244 -120 23 -8 100 -15
195 -20 36 -1 70 -3 75 -4 6 0 23 -17 39 -38 27 -33 30 -46 37 -142 4 -58 14
-140 22 -181 29 -158 162 -324 314 -395 43 -19 89 -42 103 -49 14 -8 59 -18
100 -22 41 -5 1056 -9 2255 -9 l2180 0 68 32 c37 18 85 37 106 43 69 18 161
105 256 242 85 122 99 265 96 1003 -1 176 1 1146 5 2155 4 1009 6 1869 4 1910
-1 41 -2 89 -2 105 2 120 0 433 -3 545 -6 209 -48 321 -170 457 -107 121 -237
196 -380 221 -79 14 -2610 22 -3765 11z m3786 -124 c16 -8 36 -15 45 -15 23 0
124 -55 184 -101 55 -42 128 -133 150 -189 4 -8 13 -28 20 -45 8 -16 19 -59
25 -95 16 -104 12 -5569 -4 -5640 -30 -130 -118 -263 -215 -325 -70 -43 -149
-82 -183 -89 -118 -24 -338 -26 -2323 -23 -1843 3 -2117 5 -2165 18 -59 16
-155 61 -181 85 -8 8 -20 14 -26 14 -13 0 -117 111 -135 144 -81 152 -88 185
-88 408 l0 195 -187 6 c-246 9 -317 29 -449 128 -55 42 -125 135 -156 209 -40
95 -42 108 -48 297 -3 105 -8 195 -12 199 -4 3 -21 1 -38 -6 -51 -21 -191 9
-293 63 -57 30 -145 106 -177 153 -45 66 -80 134 -80 153 0 9 -7 29 -15 45
-14 26 -16 181 -15 1314 0 1127 2 1286 15 1305 8 12 15 29 15 39 0 24 29 86
61 128 14 19 28 43 32 52 14 39 223 178 267 178 10 0 31 7 46 15 19 10 58 15
112 15 l82 0 0 83 c1 56 5 88 15 101 8 11 15 27 15 37 0 22 55 123 96 178 52
67 203 171 250 171 8 0 27 6 42 14 21 11 79 15 222 18 l195 3 5 167 c3 114 9
171 18 180 6 6 12 21 12 33 0 42 66 150 136 222 39 40 81 77 95 83 13 6 44 22
69 35 25 13 54 24 65 25 11 0 29 7 39 15 17 13 302 15 2227 15 1938 0 2210 -2
2235 -15z"/>
<path d="M2583 6938 c-10 -16 -16 -4582 -6 -4703 7 -80 10 -90 27 -90 13 0 22
10 28 30 9 35 11 4698 1 4735 -9 37 -35 51 -50 28z"/>
<path d="M4117 6820 c-657 -5 -679 -6 -693 -24 -20 -28 -18 -33 19 -40 48 -10
1426 -6 1432 4 8 12 -37 58 -60 62 -11 2 -325 1 -698 -2z"/>
<path d="M5773 6822 l-112 -3 -27 -34 c-14 -19 -32 -35 -40 -35 -24 0 -42 -54
-49 -150 -4 -52 -11 -113 -15 -135 -5 -22 -12 -105 -15 -185 -3 -80 -10 -188
-15 -240 -5 -52 -12 -129 -16 -170 -7 -86 -8 -96 -17 -130 -3 -14 -9 -77 -12
-140 -3 -63 -10 -169 -15 -235 -5 -66 -12 -148 -14 -182 -3 -33 -10 -80 -16
-102 -6 -23 -9 -45 -6 -50 3 -5 1 -44 -4 -87 -5 -44 -16 -189 -25 -324 -8
-135 -19 -272 -25 -305 -5 -33 -13 -107 -16 -165 -3 -58 -8 -109 -11 -113 -3
-5 -9 -89 -14 -187 -5 -98 -13 -198 -19 -222 -11 -44 -14 -76 -18 -183 -2 -64
-15 -97 -31 -80 -5 6 -14 64 -20 130 -6 66 -15 154 -20 195 -11 84 -48 509
-61 700 -5 69 -14 166 -19 215 -10 89 -35 392 -46 552 -2 44 -9 92 -13 105 -5
12 -9 59 -11 103 -1 44 -6 114 -11 155 -5 41 -12 138 -15 215 -3 77 -10 154
-15 170 -5 17 -9 41 -9 55 0 14 -5 77 -11 140 -12 119 -15 168 -32 430 -8 126
-14 161 -30 188 -11 18 -25 31 -32 29 -15 -5 -14 -178 2 -327 6 -63 17 -176
23 -250 6 -74 17 -200 25 -280 7 -80 18 -215 23 -300 6 -85 15 -189 20 -230 6
-41 13 -131 16 -199 4 -69 8 -128 11 -133 5 -8 23 -213 44 -503 5 -71 14 -157
19 -190 6 -33 13 -116 16 -185 3 -69 10 -161 15 -205 12 -100 29 -308 44 -530
l11 -170 80 0 80 0 2 65 c1 36 7 106 13 155 10 86 16 147 45 515 13 156 21
249 46 518 6 62 14 170 19 240 16 233 30 396 40 457 5 33 12 114 15 180 3 66
10 152 16 190 5 39 14 131 19 205 9 131 18 240 40 480 6 63 15 176 21 250 6
74 14 161 18 193 l6 58 727 2 c399 1 729 5 733 9 12 11 -15 48 -39 54 -24 6
-1075 11 -1273 6z"/>
<path d="M3359 6734 c-29 -35 -21 -464 11 -569 5 -16 16 -79 24 -140 8 -60 20
-130 26 -155 18 -80 29 -143 45 -265 9 -66 20 -133 25 -149 12 -34 37 -189 44
-263 2 -28 9 -60 14 -70 6 -10 15 -50 21 -88 30 -203 43 -276 56 -330 9 -33
20 -107 25 -165 5 -57 16 -125 24 -150 15 -47 34 -157 46 -275 4 -38 14 -88
23 -110 8 -22 21 -71 27 -110 7 -38 20 -113 30 -165 10 -52 21 -135 25 -183 3
-48 13 -106 21 -129 7 -22 14 -61 14 -87 0 -41 7 -83 42 -251 11 -56 22 -121
48 -280 28 -178 78 -461 84 -477 3 -7 12 -56 21 -109 8 -53 21 -106 28 -119
15 -29 66 -71 101 -85 42 -16 2080 -13 2126 3 59 21 108 81 121 150 15 73 38
209 55 312 8 55 20 116 24 135 5 19 18 96 29 170 12 74 28 167 36 205 8 39 24
126 35 195 11 69 27 159 35 200 9 41 21 113 26 160 5 47 16 112 24 145 8 33
19 112 25 175 6 63 15 129 20 145 5 17 15 62 21 100 21 136 26 160 42 195 8
19 18 67 21 105 9 110 23 200 34 221 9 18 36 183 34 214 0 15 20 115 38 180 5
19 16 94 25 165 9 72 22 155 30 185 7 30 25 125 39 210 14 85 32 191 40 235 7
44 19 118 26 165 6 47 15 101 20 120 40 167 42 184 38 407 -2 161 -6 225 -15
235 -28 27 -35 -9 -38 -204 -2 -116 -9 -225 -18 -273 -9 -44 -21 -111 -27
-150 -6 -38 -16 -90 -21 -115 -5 -25 -14 -76 -19 -115 -5 -38 -16 -104 -24
-145 -8 -41 -20 -109 -26 -150 -7 -41 -18 -100 -26 -131 -8 -30 -14 -71 -14
-91 0 -19 -4 -48 -10 -64 -5 -16 -14 -63 -20 -104 -6 -41 -17 -111 -24 -155
-8 -44 -19 -111 -26 -150 -6 -38 -16 -92 -22 -119 -6 -26 -14 -74 -19 -105 -5
-31 -15 -96 -24 -146 -8 -49 -20 -124 -26 -165 -5 -41 -14 -86 -20 -100 -5
-14 -13 -61 -19 -105 -5 -44 -17 -114 -25 -155 -9 -41 -22 -118 -30 -170 -9
-52 -22 -133 -30 -180 -8 -47 -22 -125 -30 -175 -30 -182 -44 -255 -50 -264
-3 -5 -9 -47 -15 -93 -5 -45 -14 -105 -19 -133 -5 -27 -17 -95 -26 -150 -9
-55 -23 -127 -31 -161 -8 -33 -14 -77 -14 -96 0 -20 -5 -49 -11 -65 -6 -15
-15 -59 -20 -98 -5 -38 -16 -108 -24 -155 -8 -47 -18 -111 -21 -142 l-7 -58
-1094 -2 c-601 -2 -1101 0 -1111 3 -12 4 -20 28 -29 95 -7 49 -20 130 -28 179
-9 50 -22 131 -30 180 -7 50 -21 126 -29 170 -9 44 -20 110 -25 146 -4 36 -13
88 -19 115 -6 27 -16 78 -22 114 -6 36 -17 103 -25 150 -8 47 -20 118 -25 159
-6 41 -13 78 -16 83 -5 8 -26 133 -43 258 -5 30 -13 75 -19 100 -6 25 -16 77
-22 115 -6 39 -17 106 -25 150 -8 44 -20 118 -25 163 -5 46 -13 89 -17 95 -7
11 -21 94 -43 247 -5 36 -14 81 -19 100 -5 19 -14 69 -20 110 -13 90 -34 212
-56 335 -36 199 -45 253 -55 325 -6 41 -13 82 -16 90 -3 8 -12 56 -20 105 -8
50 -21 126 -30 170 -8 44 -19 112 -24 150 -5 39 -13 93 -19 120 -6 28 -16 75
-22 105 -5 30 -14 75 -19 100 -5 25 -9 138 -9 253 -1 169 -4 207 -15 207 -7 0
-20 -7 -27 -16z"/>
<path d="M1677 6133 c-24 -218 -28 -522 -24 -1748 4 -1230 7 -1378 30 -1402 4
-3 13 -3 22 1 14 5 15 158 12 1583 -1 868 -6 1588 -11 1601 -14 36 -23 25 -29
-35z"/>
</g>
</svg>
